<svg xmlns="http://www.w3.org/2000/svg" xmlns:xlink="http://www.w3.org/1999/xlink" width="500" zoomAndPan="magnify" viewBox="0 0 375 374.999991" height="500" preserveAspectRatio="xMidYMid meet" version="1.0"><defs><g/></defs><g fill="#ffffff" fill-opacity="1"><g transform="translate(-19.535481, 181.21446)"><g><path d="M 147.640625 -143.1875 L 164.859375 -130.375 L 54.828125 17.640625 L 146.0625 85.46875 L 134.984375 100.359375 L 26.53125 19.71875 Z M 147.640625 -143.1875 "/></g></g></g><g fill="#ffffff" fill-opacity="1"><g transform="translate(283.389456, 255.96035)"><g><path d="M -108.734375 77.0625 L -111.421875 74.46875 L -23.0625 -17.28125 L -79.25 -71.375 L -76.796875 -73.9375 L -17.921875 -17.25 Z M -108.734375 77.0625 "/></g></g></g><path stroke-linecap="butt" transform="matrix(0.289242, -1.372889, 1.372889, 0.289242, 129.18716, 336.19908)" fill="none" stroke-linejoin="miter" d="M 0.000250153 2.000425 L 159.998625 1.99973 " stroke="#97f0b5" stroke-width="4" stroke-opacity="1" stroke-miterlimit="4"/><g fill="#ffffff" fill-opacity="1"><g transform="translate(151.744271, 98.615439)"><g><path d="M 8.9375 -31.1875 L 19.125 -5.734375 L 29.328125 -31.1875 L 34.65625 -31.1875 L 34.65625 0 L 30.546875 0 L 30.546875 -12.140625 L 30.9375 -25.265625 L 20.6875 0 L 17.546875 0 L 7.328125 -25.1875 L 7.734375 -12.140625 L 7.734375 0 L 3.625 0 L 3.625 -31.1875 Z M 8.9375 -31.1875 "/></g></g></g><g fill="#ffffff" fill-opacity="1"><g transform="translate(190.0492, 98.615439)"><g><path d="M 12.625 0.421875 C 9.476562 0.421875 6.921875 -0.609375 4.953125 -2.671875 C 2.984375 -4.734375 2 -7.492188 2 -10.953125 L 2 -11.671875 C 2 -13.972656 2.4375 -16.023438 3.3125 -17.828125 C 4.1875 -19.640625 5.410156 -21.054688 6.984375 -22.078125 C 8.566406 -23.097656 10.28125 -23.609375 12.125 -23.609375 C 15.132812 -23.609375 17.472656 -22.613281 19.140625 -20.625 C 20.816406 -18.644531 21.65625 -15.804688 21.65625 -12.109375 L 21.65625 -10.453125 L 5.953125 -10.453125 C 6.015625 -8.171875 6.679688 -6.328125 7.953125 -4.921875 C 9.234375 -3.515625 10.859375 -2.8125 12.828125 -2.8125 C 14.234375 -2.8125 15.421875 -3.09375 16.390625 -3.65625 C 17.359375 -4.226562 18.207031 -4.988281 18.9375 -5.9375 L 21.359375 -4.046875 C 19.421875 -1.066406 16.507812 0.421875 12.625 0.421875 Z M 12.125 -20.359375 C 10.519531 -20.359375 9.175781 -19.773438 8.09375 -18.609375 C 7.007812 -17.441406 6.335938 -15.8125 6.078125 -13.71875 L 17.703125 -13.71875 L 17.703125 -14.015625 C 17.585938 -16.023438 17.039062 -17.582031 16.0625 -18.6875 C 15.09375 -19.800781 13.78125 -20.359375 12.125 -20.359375 Z M 12.125 -20.359375 "/></g></g></g><g fill="#ffffff" fill-opacity="1"><g transform="translate(213.293522, 98.615439)"><g><path d="M 7.3125 0 L 3.34375 0 L 3.34375 -32.90625 L 7.3125 -32.90625 Z M 7.3125 0 "/></g></g></g><g fill="#ffffff" fill-opacity="1"><g transform="translate(223.940922, 98.615439)"><g><path d="M 17.3125 0 C 17.082031 -0.457031 16.894531 -1.269531 16.75 -2.4375 C 14.90625 -0.53125 12.707031 0.421875 10.15625 0.421875 C 7.875 0.421875 6 -0.222656 4.53125 -1.515625 C 3.0625 -2.804688 2.328125 -4.441406 2.328125 -6.421875 C 2.328125 -8.835938 3.242188 -10.710938 5.078125 -12.046875 C 6.921875 -13.378906 9.503906 -14.046875 12.828125 -14.046875 L 16.6875 -14.046875 L 16.6875 -15.875 C 16.6875 -17.257812 16.269531 -18.363281 15.4375 -19.1875 C 14.613281 -20.007812 13.394531 -20.421875 11.78125 -20.421875 C 10.363281 -20.421875 9.175781 -20.0625 8.21875 -19.34375 C 7.269531 -18.632812 6.796875 -17.769531 6.796875 -16.75 L 2.8125 -16.75 C 2.8125 -17.90625 3.21875 -19.019531 4.03125 -20.09375 C 4.851562 -21.175781 5.96875 -22.03125 7.375 -22.65625 C 8.78125 -23.289062 10.328125 -23.609375 12.015625 -23.609375 C 14.691406 -23.609375 16.785156 -22.941406 18.296875 -21.609375 C 19.804688 -20.273438 20.59375 -18.4375 20.65625 -16.09375 L 20.65625 -5.421875 C 20.65625 -3.296875 20.925781 -1.601562 21.46875 -0.34375 L 21.46875 0 Z M 10.734375 -3.015625 C 11.972656 -3.015625 13.148438 -3.335938 14.265625 -3.984375 C 15.378906 -4.628906 16.1875 -5.460938 16.6875 -6.484375 L 16.6875 -11.25 L 13.578125 -11.25 C 8.722656 -11.25 6.296875 -9.828125 6.296875 -6.984375 C 6.296875 -5.742188 6.707031 -4.769531 7.53125 -4.0625 C 8.363281 -3.363281 9.429688 -3.015625 10.734375 -3.015625 Z M 10.734375 -3.015625 "/></g></g></g><g fill="#ffffff" fill-opacity="1"><g transform="translate(247.806521, 98.615439)"><g><path d="M 6.75 -23.1875 L 6.875 -20.265625 C 8.644531 -22.492188 10.957031 -23.609375 13.8125 -23.609375 C 18.71875 -23.609375 21.191406 -20.84375 21.234375 -15.3125 L 21.234375 0 L 17.265625 0 L 17.265625 -15.34375 C 17.253906 -17.007812 16.875 -18.242188 16.125 -19.046875 C 15.375 -19.847656 14.207031 -20.25 12.625 -20.25 C 11.332031 -20.25 10.203125 -19.90625 9.234375 -19.21875 C 8.265625 -18.53125 7.507812 -17.628906 6.96875 -16.515625 L 6.96875 0 L 3 0 L 3 -23.1875 Z M 6.75 -23.1875 "/></g></g></g><g fill="#ffffff" fill-opacity="1"><g transform="translate(272.014893, 98.615439)"><g><path d="M 7.3125 0 L 3.34375 0 L 3.34375 -23.1875 L 7.3125 -23.1875 Z M 3.015625 -29.328125 C 3.015625 -29.972656 3.210938 -30.515625 3.609375 -30.953125 C 4.003906 -31.398438 4.585938 -31.625 5.359375 -31.625 C 6.128906 -31.625 6.710938 -31.398438 7.109375 -30.953125 C 7.515625 -30.515625 7.71875 -29.972656 7.71875 -29.328125 C 7.71875 -28.679688 7.515625 -28.144531 7.109375 -27.71875 C 6.710938 -27.289062 6.128906 -27.078125 5.359375 -27.078125 C 4.585938 -27.078125 4.003906 -27.289062 3.609375 -27.71875 C 3.210938 -28.144531 3.015625 -28.679688 3.015625 -29.328125 Z M 3.015625 -29.328125 "/></g></g></g><g fill="#ffffff" fill-opacity="1"><g transform="translate(282.662292, 98.615439)"><g><path d="M 12.625 0.421875 C 9.476562 0.421875 6.921875 -0.609375 4.953125 -2.671875 C 2.984375 -4.734375 2 -7.492188 2 -10.953125 L 2 -11.671875 C 2 -13.972656 2.4375 -16.023438 3.3125 -17.828125 C 4.1875 -19.640625 5.410156 -21.054688 6.984375 -22.078125 C 8.566406 -23.097656 10.28125 -23.609375 12.125 -23.609375 C 15.132812 -23.609375 17.472656 -22.613281 19.140625 -20.625 C 20.816406 -18.644531 21.65625 -15.804688 21.65625 -12.109375 L 21.65625 -10.453125 L 5.953125 -10.453125 C 6.015625 -8.171875 6.679688 -6.328125 7.953125 -4.921875 C 9.234375 -3.515625 10.859375 -2.8125 12.828125 -2.8125 C 14.234375 -2.8125 15.421875 -3.09375 16.390625 -3.65625 C 17.359375 -4.226562 18.207031 -4.988281 18.9375 -5.9375 L 21.359375 -4.046875 C 19.421875 -1.066406 16.507812 0.421875 12.625 0.421875 Z M 12.125 -20.359375 C 10.519531 -20.359375 9.175781 -19.773438 8.09375 -18.609375 C 7.007812 -17.441406 6.335938 -15.8125 6.078125 -13.71875 L 17.703125 -13.71875 L 17.703125 -14.015625 C 17.585938 -16.023438 17.039062 -17.582031 16.0625 -18.6875 C 15.09375 -19.800781 13.78125 -20.359375 12.125 -20.359375 Z M 12.125 -20.359375 "/></g></g></g><g fill="#ffffff" fill-opacity="1"><g transform="translate(190.556768, 159.365435)"><g><path d="M 12.8125 -13.90625 C 9.28125 -14.914062 6.710938 -16.160156 5.109375 -17.640625 C 3.503906 -19.117188 2.703125 -20.941406 2.703125 -23.109375 C 2.703125 -25.566406 3.679688 -27.597656 5.640625 -29.203125 C 7.609375 -30.816406 10.160156 -31.625 13.296875 -31.625 C 15.441406 -31.625 17.351562 -31.207031 19.03125 -30.375 C 20.707031 -29.550781 22.003906 -28.410156 22.921875 -26.953125 C 23.847656 -25.492188 24.3125 -23.898438 24.3125 -22.171875 L 20.1875 -22.171875 C 20.1875 -24.054688 19.582031 -25.535156 18.375 -26.609375 C 17.175781 -27.691406 15.484375 -28.234375 13.296875 -28.234375 C 11.273438 -28.234375 9.695312 -27.785156 8.5625 -26.890625 C 7.425781 -26.003906 6.859375 -24.769531 6.859375 -23.1875 C 6.859375 -21.90625 7.394531 -20.828125 8.46875 -19.953125 C 9.550781 -19.078125 11.382812 -18.273438 13.96875 -17.546875 C 16.5625 -16.816406 18.59375 -16.007812 20.0625 -15.125 C 21.53125 -14.25 22.613281 -13.222656 23.3125 -12.046875 C 24.019531 -10.878906 24.375 -9.503906 24.375 -7.921875 C 24.375 -5.398438 23.390625 -3.378906 21.421875 -1.859375 C 19.453125 -0.335938 16.816406 0.421875 13.515625 0.421875 C 11.367188 0.421875 9.367188 0.015625 7.515625 -0.796875 C 5.660156 -1.617188 4.226562 -2.742188 3.21875 -4.171875 C 2.21875 -5.597656 1.71875 -7.222656 1.71875 -9.046875 L 5.84375 -9.046875 C 5.84375 -7.160156 6.539062 -5.671875 7.9375 -4.578125 C 9.332031 -3.484375 11.191406 -2.9375 13.515625 -2.9375 C 15.691406 -2.9375 17.359375 -3.378906 18.515625 -4.265625 C 19.671875 -5.148438 20.25 -6.351562 20.25 -7.875 C 20.25 -9.40625 19.710938 -10.585938 18.640625 -11.421875 C 17.566406 -12.265625 15.625 -13.09375 12.8125 -13.90625 Z M 12.8125 -13.90625 "/></g></g></g><g fill="#ffffff" fill-opacity="1"><g transform="translate(216.586125, 159.365435)"><g><path d="M 7.3125 0 L 3.34375 0 L 3.34375 -23.1875 L 7.3125 -23.1875 Z M 3.015625 -29.328125 C 3.015625 -29.972656 3.210938 -30.515625 3.609375 -30.953125 C 4.003906 -31.398438 4.585938 -31.625 5.359375 -31.625 C 6.128906 -31.625 6.710938 -31.398438 7.109375 -30.953125 C 7.515625 -30.515625 7.71875 -29.972656 7.71875 -29.328125 C 7.71875 -28.679688 7.515625 -28.144531 7.109375 -27.71875 C 6.710938 -27.289062 6.128906 -27.078125 5.359375 -27.078125 C 4.585938 -27.078125 4.003906 -27.289062 3.609375 -27.71875 C 3.210938 -28.144531 3.015625 -28.679688 3.015625 -29.328125 Z M 3.015625 -29.328125 "/></g></g></g><g fill="#ffffff" fill-opacity="1"><g transform="translate(227.233524, 159.365435)"><g><path d="M 7.3125 0 L 3.34375 0 L 3.34375 -32.90625 L 7.3125 -32.90625 Z M 7.3125 0 "/></g></g></g><g fill="#ffffff" fill-opacity="1"><g transform="translate(237.880923, 159.365435)"><g><path d="M 7.3125 0 L 3.34375 0 L 3.34375 -23.1875 L 7.3125 -23.1875 Z M 3.015625 -29.328125 C 3.015625 -29.972656 3.210938 -30.515625 3.609375 -30.953125 C 4.003906 -31.398438 4.585938 -31.625 5.359375 -31.625 C 6.128906 -31.625 6.710938 -31.398438 7.109375 -30.953125 C 7.515625 -30.515625 7.71875 -29.972656 7.71875 -29.328125 C 7.71875 -28.679688 7.515625 -28.144531 7.109375 -27.71875 C 6.710938 -27.289062 6.128906 -27.078125 5.359375 -27.078125 C 4.585938 -27.078125 4.003906 -27.289062 3.609375 -27.71875 C 3.210938 -28.144531 3.015625 -28.679688 3.015625 -29.328125 Z M 3.015625 -29.328125 "/></g></g></g><g fill="#ffffff" fill-opacity="1"><g transform="translate(248.528322, 159.365435)"><g><path d="M 12.625 0.421875 C 9.476562 0.421875 6.921875 -0.609375 4.953125 -2.671875 C 2.984375 -4.734375 2 -7.492188 2 -10.953125 L 2 -11.671875 C 2 -13.972656 2.4375 -16.023438 3.3125 -17.828125 C 4.1875 -19.640625 5.410156 -21.054688 6.984375 -22.078125 C 8.566406 -23.097656 10.28125 -23.609375 12.125 -23.609375 C 15.132812 -23.609375 17.472656 -22.613281 19.140625 -20.625 C 20.816406 -18.644531 21.65625 -15.804688 21.65625 -12.109375 L 21.65625 -10.453125 L 5.953125 -10.453125 C 6.015625 -8.171875 6.679688 -6.328125 7.953125 -4.921875 C 9.234375 -3.515625 10.859375 -2.8125 12.828125 -2.8125 C 14.234375 -2.8125 15.421875 -3.09375 16.390625 -3.65625 C 17.359375 -4.226562 18.207031 -4.988281 18.9375 -5.9375 L 21.359375 -4.046875 C 19.421875 -1.066406 16.507812 0.421875 12.625 0.421875 Z M 12.125 -20.359375 C 10.519531 -20.359375 9.175781 -19.773438 8.09375 -18.609375 C 7.007812 -17.441406 6.335938 -15.8125 6.078125 -13.71875 L 17.703125 -13.71875 L 17.703125 -14.015625 C 17.585938 -16.023438 17.039062 -17.582031 16.0625 -18.6875 C 15.09375 -19.800781 13.78125 -20.359375 12.125 -20.359375 Z M 12.125 -20.359375 "/></g></g></g><g fill="#ffffff" fill-opacity="1"><g transform="translate(271.772645, 159.365435)"><g><path d="M 16.5 -6.15625 C 16.5 -7.21875 16.09375 -8.046875 15.28125 -8.640625 C 14.476562 -9.234375 13.070312 -9.742188 11.0625 -10.171875 C 9.0625 -10.597656 7.46875 -11.113281 6.28125 -11.71875 C 5.101562 -12.320312 4.234375 -13.035156 3.671875 -13.859375 C 3.109375 -14.691406 2.828125 -15.675781 2.828125 -16.8125 C 2.828125 -18.71875 3.628906 -20.328125 5.234375 -21.640625 C 6.835938 -22.953125 8.890625 -23.609375 11.390625 -23.609375 C 14.023438 -23.609375 16.160156 -22.925781 17.796875 -21.5625 C 19.429688 -20.207031 20.25 -18.476562 20.25 -16.375 L 16.265625 -16.375 C 16.265625 -17.457031 15.800781 -18.390625 14.875 -19.171875 C 13.957031 -19.960938 12.796875 -20.359375 11.390625 -20.359375 C 9.953125 -20.359375 8.828125 -20.039062 8.015625 -19.40625 C 7.203125 -18.78125 6.796875 -17.960938 6.796875 -16.953125 C 6.796875 -15.992188 7.171875 -15.269531 7.921875 -14.78125 C 8.679688 -14.289062 10.050781 -13.820312 12.03125 -13.375 C 14.007812 -12.9375 15.613281 -12.410156 16.84375 -11.796875 C 18.070312 -11.191406 18.976562 -10.457031 19.5625 -9.59375 C 20.15625 -8.726562 20.453125 -7.671875 20.453125 -6.421875 C 20.453125 -4.359375 19.625 -2.703125 17.96875 -1.453125 C 16.3125 -0.203125 14.164062 0.421875 11.53125 0.421875 C 9.664062 0.421875 8.019531 0.09375 6.59375 -0.5625 C 5.164062 -1.21875 4.046875 -2.132812 3.234375 -3.3125 C 2.429688 -4.488281 2.03125 -5.765625 2.03125 -7.140625 L 6 -7.140625 C 6.070312 -5.804688 6.601562 -4.75 7.59375 -3.96875 C 8.582031 -3.195312 9.894531 -2.8125 11.53125 -2.8125 C 13.03125 -2.8125 14.234375 -3.113281 15.140625 -3.71875 C 16.046875 -4.320312 16.5 -5.132812 16.5 -6.15625 Z M 16.5 -6.15625 "/></g></g></g><g fill="#97f0b5" fill-opacity="1"><g transform="translate(294.38489, 159.365435)"><g><path d="M 3.078125 -2.078125 C 3.078125 -2.765625 3.28125 -3.335938 3.6875 -3.796875 C 4.101562 -4.253906 4.71875 -4.484375 5.53125 -4.484375 C 6.34375 -4.484375 6.957031 -4.253906 7.375 -3.796875 C 7.800781 -3.335938 8.015625 -2.765625 8.015625 -2.078125 C 8.015625 -1.421875 7.800781 -0.867188 7.375 -0.421875 C 6.957031 0.015625 6.34375 0.234375 5.53125 0.234375 C 4.71875 0.234375 4.101562 0.015625 3.6875 -0.421875 C 3.28125 -0.867188 3.078125 -1.421875 3.078125 -2.078125 Z M 3.078125 -2.078125 "/></g></g></g></svg>